#!OML:ASF F:\VICON\USERDATA\INSTALL\rory3\rory3.ASF
:FULLY-SPECIFIED
:DEGREES
35
root 0.3591701092650921 17.792784700708243 12.947203836909292 -2.993055610599585 -3.053716475902164 -4.010792364775171
lfemur -24.608056571032026 -3.2573697295694197 -16.834404171658715
ltibia 25.912470894897368
lfoot -0.9636497994558653 -5.702413894252867
ltoes -0.018391987879119664
rfemur 10.48797178725815 4.215837312562289 29.14587331040785
rtibia 49.052980420658955
rfoot -4.953093145515645 2.2466463613679695
rtoes -4.192007237258867
lowerback 8.448129482001397 1.7930881647838186 4.485776893395526
upperback -0.2837862033052099 2.964434849299887 0.8145715782219332
thorax -5.017607040088778 1.376865550087226 -1.9370066690044792
lowerneck -16.387501621065596 -3.2825296957674768 -1.636578980770535
upperneck 20.742145584107316 -4.39786987875398 0.7680345926286
head 9.28278821084824 -2.075258146585922 -0.08884826522149236
lclavicle 1.4655999965167214e-16 2.3667101503677415e-16
lhumerus -39.186307738642085 14.166450664767785 76.918776683085
lradius 16.29227422963048
lwrist -2.103915139332069
lhand -26.905892732400332 22.703350524898987
lfingers 7.12502
lthumb -0.41287881095964996 52.631939338792904
rclavicle 1.4884413387569366e-16 2.384390398303909e-16
rhumerus -22.433822952944595 -12.634576973635063 -82.8464879293476
rradius 32.26463109266429
rwrist -0.12380565838955171
rhand -18.612536940843654 23.779138940752297
rfingers 7.12502
rthumb 7.406190380403242 -6.708131528124728
36
root 0.4657539709633003 17.850676151478936 13.579093164784066 -3.8999225908052035 -3.2237106118413594 -2.9197075211312487
lfemur -21.47700222647606 -1.8175058824746124 -19.300497865910625
ltibia 29.100641080561793
lfoot -3.782763172548739 -5.098938221251842
ltoes 0.5895847038019393
rfemur 5.19708064350456 2.9555905342740085 26.615179010887335
rtibia 60.99644857012606
rfoot 11.009756435680053 2.2294884572891105
rtoes 5.540926203111808
lowerback 8.808703340293828 1.8942199641952526 3.3685426329129733
upperback -0.29581543145679756 3.0008364643576866 0.5571369181757273
thorax -5.221991806022908 1.3850350973197287 -1.6880427335546178
lowerneck -16.317744730647494 -3.297550201461961 -1.681390100630129
upperneck 20.943752394134993 -4.4428145271176565 0.9580879897391159
head 9.331440993943497 -2.0875342046533123 -0.032720601529294034
lclavicle 1.4600407298492689e-16 2.362422177297487e-16
lhumerus -39.70260445903074 15.737448373512505 76.21167216931171
lradius 15.998068404390509
lwrist -1.4710987609278625
lhand -26.20163633336028 23.189793357053084
lfingers 7.12502
lthumb 0.00309310211935232 52.42196858590185
rclavicle 1.4771623899545348e-16 2.3757170535266616e-16
rhumerus -24.542267583058525 -14.814723179541781 -82.19651870276012
rradius 31.154776066380975
rwrist 0.7153268873590095
rhand -18.45953133924146 23.533743583022037
rfingers 7.12502
rthumb 7.727935052037553 -6.868484392689019
37
root 0.5480678896617931 17.89822034601897 14.349929725501811 -4.504409363064062 -3.4660578226414263 -0.8491542789865183
lfemur -17.386781826322412 -2.098929116709671 -22.397129661010702
ltibia 29.58414340949664
lfoot -7.14846379779125 -2.288135504489402
ltoes 1.4639623667651476
rfemur -1.6934122724916065 1.6796654913526297 23.454271847861722
rtibia 71.14855855665314
rfoot 15.494567879871774 -3.130676243178891
rtoes 15.089289173971043
lowerback 9.372854843471195 1.8222766835054882 1.3636747629092834
upperback -0.20753432663484062 2.650741978340335 0.22013280781425748
thorax -5.477849536375687 1.2602295251274604 -1.0428089372067322
lowerneck -16.36701567961924 -3.2116678903941986 -1.7354156348291458
upperneck 20.916132931795747 -4.317175598904239 1.1355219124510565
head 9.310417980251954 -2.0275287660391763 0.058423967384901174
lclavicle 1.4652076811989005e-16 2.366389431090271e-16
lhumerus -39.092217257438755 14.684923887527267 76.88789135049842
lradius 16.836956700932543
lwrist 2.1763823772898796
lhand -26.705473123530325 22.145259603054438
lfingers 7.12502
lthumb -0.32062605732454497 51.74571097847515
rclavicle 1.4797987219603426e-16 2.377744223798941e-16
rhumerus -25.593724489620982 -16.240509221493337 -81.87939840671979
rradius 29.67176083806334
rwrist 2.2132705366011747
rhand -18.08117151926537 23.232617770500998
rfingers 7.12502
rthumb 8.099051351746798 -6.853151142130578
38
root 0.6005269968441527 17.93685969939381 15.116743971672992 -5.101118477226748 -3.4999357744700297 -0.008739319908279475
lfemur -13.175656291107732 -2.5614483186494033 -24.069631672393673
ltibia 29.34888784115372
lfoot -9.651781728883439 -0.11365064816313986
ltoes 2.1613798381920617
rfemur -8.57902800404138 0.12615717775187418 22.12866670371037
rtibia 76.68821850630692
rfoot 7.5394328011150975 -7.43428228545038
rtoes 13.232462108644272
lowerback 9.861048131155464 1.5410258867471944 0.2784786349750392
upperback -0.010475583985184778 2.1249274621438605 0.18427745399573459
thorax -5.583601023583464 1.0229956024725233 -0.4348401706198608
lowerneck -16.294249205987 -3.0957746577437955 -1.8348038801084114
upperneck 20.73887533264617 -4.1081485667108595 1.1894114481129456
head 9.241860643874459 -1.9459783424352266 0.13495027560291248
lclavicle 1.458317036868272e-16 2.361078366404012e-16
lhumerus -37.809413338182175 13.243378986212218 77.67354088943934
lradius 17.490856592258737
lwrist 4.147246886708756
lhand -27.48778840688601 21.458285762217862
lfingers 7.12502
lthumb -1.023038202370545 51.094299350250985
rclavicle 1.482995802643474e-16 2.380202817161082e-16
rhumerus -26.182709951420915 -17.836803229156654 -81.53699414247849
rradius 28.106878601346253
rwrist 4.25002595407754
rhand -17.697402446399337 22.81784989313865
rfingers 7.12502
rthumb 8.513978685160087 -6.980012454571236
